<svg xmlns="http://www.w3.org/2000/svg" version="1.1" xmlns:xlink="http://www.w3.org/1999/xlink" xmlns:svgjs="http://svgjs.dev/svgjs" width="1000" height="166" viewBox="0 0 1000 166"><g transform="matrix(1,0,0,1,-0.6060587279830543,-0.4277053057312088)"><svg viewBox="0 0 396 66" data-background-color="#ffffff" preserveAspectRatio="xMidYMid meet" height="166" width="1000" xmlns="http://www.w3.org/2000/svg" xmlns:xlink="http://www.w3.org/1999/xlink"><g id="tight-bounds" transform="matrix(1,0,0,1,0.23999925628129404,0.17005150709795203)"><svg viewBox="0 0 395.52 65.65989698580408" height="65.65989698580408" width="395.52"><g><svg viewBox="0 0 504.28376899396335 83.71566627163394" height="65.65989698580408" width="395.52"><g><rect width="4.799830290109182" height="83.71566627163394" x="91.39893794440606" y="0" fill="#3d9970" opacity="1" stroke-width="0" stroke="transparent" fill-opacity="1" class="rect-o-0" data-fill-palette-color="primary" rx="1%" id="o-0" data-palette-color="#3d9970"></rect></g><g transform="matrix(1,0,0,1,108.76376899396337,0.20824792604883413)"><svg viewBox="0 0 395.52 83.29917041953627" height="83.29917041953627" width="395.52"><g id="textblocktransform"><svg viewBox="0 0 395.52 83.29917041953627" height="83.29917041953627" width="395.52" id="textblock"><g><svg viewBox="0 0 395.52 53.224388584388585" height="53.224388584388585" width="395.52"><g transform="matrix(1,0,0,1,0,0)"><svg width="395.52" viewBox="2.799999952316284 -35.25 264.5299987792969 35.599998474121094" height="53.224388584388585" data-palette-color="#3d9970"><path d="M30.65-23.5Q30.65-20.3 29.18-17.68 27.7-15.05 24.73-13.48 21.75-11.9 17.45-11.9L17.45-11.9 12.6-11.9 12.6 0 2.8 0 2.8-35.25 17.45-35.25Q21.7-35.25 24.68-33.75 27.65-32.25 29.15-29.6 30.65-26.95 30.65-23.5L30.65-23.5ZM16.5-19.7Q20.65-19.7 20.65-23.5L20.65-23.5Q20.65-27.35 16.5-27.35L16.5-27.35 12.6-27.35 12.6-19.7 16.5-19.7ZM44.4-35.25L44.4-7.5 55.35-7.5 55.35 0 34.6 0 34.6-35.25 44.4-35.25ZM83.34 0L81.44-5.75 68.94-5.75 67.05 0 56.74 0 69.59-35.25 80.89-35.25 93.69 0 83.34 0ZM71.44-13.25L79-13.25 75.19-24.65 71.44-13.25ZM129.54-35.25L129.54 0 119.74 0 106.69-19.7 106.69 0 96.89 0 96.89-35.25 106.69-35.25 119.74-15.3 119.74-35.25 129.54-35.25ZM133.19-35.25L161.69-35.25 161.69-27.45 152.29-27.45 152.29 0 142.49 0 142.49-27.45 133.19-27.45 133.19-35.25ZM187.09-35.25L196.89-35.25 196.89 0 187.09 0 187.09-14.15 175.14-14.15 175.14 0 165.34 0 165.34-35.25 175.14-35.25 175.14-22 187.09-22 187.09-35.25ZM202.34-35.25L212.09-35.25 212.09-14.8Q212.09-11.95 213.41-10.4 214.74-8.85 217.44-8.85L217.44-8.85Q220.14-8.85 221.51-10.43 222.89-12 222.89-14.8L222.89-14.8 222.89-35.25 232.69-35.25 232.69-14.8Q232.69-9.95 230.64-6.53 228.59-3.1 225.06-1.38 221.54 0.35 217.24 0.35L217.24 0.35Q212.94 0.35 209.56-1.38 206.19-3.1 204.26-6.5 202.34-9.9 202.34-14.8L202.34-14.8 202.34-35.25ZM260.58-18.1Q263.68-17.4 265.51-15.03 267.33-12.65 267.33-9.6L267.33-9.6Q267.33-5.1 264.23-2.55 261.13 0 255.53 0L255.53 0 238.08 0 238.08-35.25 254.98-35.25Q260.38-35.25 263.46-32.85 266.53-30.45 266.53-26.1L266.53-26.1Q266.53-23 264.91-20.93 263.28-18.85 260.58-18.1L260.58-18.1ZM247.88-27.45L247.88-21.25 252.83-21.25Q256.53-21.25 256.53-24.3L256.53-24.3Q256.53-27.45 252.83-27.45L252.83-27.45 247.88-27.45ZM253.58-7.9Q257.28-7.9 257.28-11L257.28-11Q257.28-12.6 256.31-13.45 255.33-14.3 253.53-14.3L253.53-14.3 247.88-14.3 247.88-7.9 253.58-7.9Z" opacity="1" transform="matrix(1,0,0,1,0,0)" fill="#3d9970" class="wordmark-text-0" data-fill-palette-color="primary" id="text-0"></path></svg></g></svg></g><g transform="matrix(1,0,0,1,0,65.7893893438367)"><svg viewBox="0 0 232.209792 17.509781075699557" height="17.509781075699557" width="232.209792"><g transform="matrix(1,0,0,1,0,0)"><svg width="232.209792" viewBox="0 -37.9900016784668 655.8399658203125 50" height="17.509781075699557" data-palette-color="#093a3e"><g class="slogan-text-1" data-fill-palette-color="secondary" id="text-1"><path d="M6.35-35.69L14.79-19.41 23.24-35.69 29.59-35.69 17.7-13.84 17.7 0 11.84 0 11.84-13.65 0-35.69 6.35-35.69ZM57.64-13.55L57.64-13.55Q57.64-6.93 54.25-3.22 50.85 0.49 44.8 0.49L44.8 0.49Q41.01 0.49 38.11-1.22 35.2-2.93 33.64-6.13 32.08-9.33 32.08-13.55L32.08-13.55Q32.08-20.12 35.45-23.8 38.82-27.49 44.94-27.49L44.94-27.49Q50.8-27.49 54.22-23.72 57.64-19.95 57.64-13.55ZM37.99-13.55L37.99-13.55Q37.99-4.2 44.89-4.2L44.89-4.2Q51.73-4.2 51.73-13.55L51.73-13.55Q51.73-22.8 44.85-22.8L44.85-22.8Q41.23-22.8 39.61-20.41 37.99-18.02 37.99-13.55ZM87.79 0L83.27 0 82.47-3.54 82.17-3.54Q80.98-1.66 78.77-0.59 76.56 0.49 73.73 0.49L73.73 0.49Q68.82 0.49 66.4-1.95 63.98-4.39 63.98-9.35L63.98-9.35 63.98-27 69.77-27 69.77-10.35Q69.77-7.25 71.04-5.7 72.31-4.15 75.02-4.15L75.02-4.15Q78.63-4.15 80.33-6.31 82.03-8.47 82.03-13.55L82.03-13.55 82.03-27 87.79-27 87.79 0ZM109.66-27.49L109.66-27.49Q111.39-27.49 112.52-27.25L112.52-27.25 111.96-21.9Q110.73-22.19 109.42-22.19L109.42-22.19Q105.97-22.19 103.84-19.95 101.7-17.7 101.7-14.11L101.7-14.11 101.7 0 95.96 0 95.96-27 100.46-27 101.21-22.24 101.51-22.24Q102.85-24.66 105.01-26.07 107.17-27.49 109.66-27.49Z" fill="#3d9970" data-fill-palette-color="primary"></path><path d="M144.82-14.36L144.82-19.36 157.95-19.36 157.95-1.44Q154.73-0.39 151.76 0.05 148.8 0.49 145.35 0.49L145.35 0.49Q137.25 0.49 132.85-4.31 128.46-9.11 128.46-17.85L128.46-17.85Q128.46-26.46 133.42-31.34 138.37-36.21 147.06-36.21L147.06-36.21Q152.65-36.21 157.66-34.06L157.66-34.06 155.61-29.2Q151.26-31.2 146.92-31.2L146.92-31.2Q141.2-31.2 137.88-27.61 134.56-24.02 134.56-17.8L134.56-17.8Q134.56-11.25 137.55-7.85 140.54-4.44 146.16-4.44L146.16-4.44Q148.99-4.44 152.21-5.15L152.21-5.15 152.21-14.36 144.82-14.36ZM179.6-27.49L179.6-27.49Q181.34-27.49 182.46-27.25L182.46-27.25 181.9-21.9Q180.68-22.19 179.36-22.19L179.36-22.19Q175.92-22.19 173.78-19.95 171.65-17.7 171.65-14.11L171.65-14.11 171.65 0 165.91 0 165.91-27 170.4-27 171.16-22.24 171.45-22.24Q172.79-24.66 174.95-26.07 177.11-27.49 179.6-27.49ZM199.26 0.49L199.26 0.49Q192.96 0.49 189.4-3.19 185.85-6.86 185.85-13.31L185.85-13.31Q185.85-19.92 189.15-23.71 192.44-27.49 198.21-27.49L198.21-27.49Q203.55-27.49 206.65-24.24 209.75-21 209.75-15.31L209.75-15.31 209.75-12.21 191.76-12.21Q191.88-8.28 193.88-6.16 195.89-4.05 199.52-4.05L199.52-4.05Q201.92-4.05 203.98-4.5 206.04-4.96 208.41-6.01L208.41-6.01 208.41-1.34Q206.31-0.34 204.16 0.07 202.01 0.49 199.26 0.49ZM198.21-23.14L198.21-23.14Q195.47-23.14 193.82-21.41 192.18-19.68 191.86-16.36L191.86-16.36 204.11-16.36Q204.07-19.7 202.5-21.42 200.94-23.14 198.21-23.14ZM228.06 0.49L228.06 0.49Q221.76 0.49 218.21-3.19 214.66-6.86 214.66-13.31L214.66-13.31Q214.66-19.92 217.95-23.71 221.25-27.49 227.01-27.49L227.01-27.49Q232.36-27.49 235.46-24.24 238.56-21 238.56-15.31L238.56-15.31 238.56-12.21 220.57-12.21Q220.69-8.28 222.69-6.16 224.69-4.05 228.33-4.05L228.33-4.05Q230.72-4.05 232.79-4.5 234.85-4.96 237.22-6.01L237.22-6.01 237.22-1.34Q235.12-0.34 232.97 0.07 230.82 0.49 228.06 0.49ZM227.01-23.14L227.01-23.14Q224.28-23.14 222.63-21.41 220.98-19.68 220.66-16.36L220.66-16.36 232.92-16.36Q232.87-19.7 231.31-21.42 229.75-23.14 227.01-23.14ZM268.83-17.6L268.83 0 263.07 0 263.07-16.6Q263.07-19.73 261.81-21.26 260.55-22.8 257.82-22.8L257.82-22.8Q254.18-22.8 252.5-20.65 250.81-18.51 250.81-13.45L250.81-13.45 250.81 0 245.08 0 245.08-27 249.57-27 250.37-23.46 250.67-23.46Q251.89-25.39 254.13-26.44 256.38-27.49 259.11-27.49L259.11-27.49Q268.83-27.49 268.83-17.6L268.83-17.6Z" fill="#093a3e" data-fill-palette-color="secondary"></path><path d="M300-20.04L313.77 0 307.01 0 295.81-16.16 292.36-13.35 292.36 0 286.53 0 286.53-35.69 292.36-35.69 292.36-18.65Q294.76-21.58 297.12-24.29L297.12-24.29 306.77-35.69 313.41-35.69Q304.06-24.71 300-20.04L300-20.04ZM341.63-17.6L341.63 0 335.87 0 335.87-16.6Q335.87-19.73 334.61-21.26 333.35-22.8 330.62-22.8L330.62-22.8Q326.98-22.8 325.29-20.65 323.61-18.51 323.61-13.45L323.61-13.45 323.61 0 317.87 0 317.87-27 322.37-27 323.17-23.46 323.46-23.46Q324.68-25.39 326.93-26.44 329.18-27.49 331.91-27.49L331.91-27.49Q341.63-27.49 341.63-17.6L341.63-17.6ZM373.56-13.55L373.56-13.55Q373.56-6.93 370.17-3.22 366.77 0.49 360.72 0.49L360.72 0.49Q356.93 0.49 354.03-1.22 351.12-2.93 349.56-6.13 348-9.33 348-13.55L348-13.55Q348-20.12 351.37-23.8 354.74-27.49 360.86-27.49L360.86-27.49Q366.72-27.49 370.14-23.72 373.56-19.95 373.56-13.55ZM353.91-13.55L353.91-13.55Q353.91-4.2 360.81-4.2L360.81-4.2Q367.65-4.2 367.65-13.55L367.65-13.55Q367.65-22.8 360.77-22.8L360.77-22.8Q357.15-22.8 355.53-20.41 353.91-18.02 353.91-13.55ZM408.74 0L402.29 0 398.8-12.6Q398.17-14.6 396.51-21.9L396.51-21.9 396.29-21.9Q394.87-15.31 394.04-12.55L394.04-12.55 390.45 0 384.1 0 376.53-27 382.39-27 385.84-13.7Q387.01-8.76 387.5-5.25L387.5-5.25 387.64-5.25Q387.89-7.03 388.39-9.34 388.89-11.65 389.25-12.79L389.25-12.79 393.36-27 399.65-27 403.63-12.79Q404-11.6 404.55-9.13 405.1-6.67 405.2-5.3L405.2-5.3 405.39-5.3Q405.76-8.3 407.1-13.7L407.1-13.7 410.59-27 416.35-27 408.74 0ZM426.73-37.99L426.73 0 420.99 0 420.99-37.99 426.73-37.99ZM446.72 0.49L446.72 0.49Q440.42 0.49 436.87-3.19 433.32-6.86 433.32-13.31L433.32-13.31Q433.32-19.92 436.61-23.71 439.91-27.49 445.67-27.49L445.67-27.49Q451.02-27.49 454.12-24.24 457.22-21 457.22-15.31L457.22-15.31 457.22-12.21 439.23-12.21Q439.35-8.28 441.35-6.16 443.35-4.05 446.99-4.05L446.99-4.05Q449.38-4.05 451.44-4.5 453.51-4.96 455.88-6.01L455.88-6.01 455.88-1.34Q453.78-0.34 451.63 0.07 449.48 0.49 446.72 0.49ZM445.67-23.14L445.67-23.14Q442.94-23.14 441.29-21.41 439.64-19.68 439.32-16.36L439.32-16.36 451.58-16.36Q451.53-19.7 449.97-21.42 448.4-23.14 445.67-23.14ZM472.84 0.49L472.84 0.49Q467.79 0.49 464.96-3.17 462.12-6.84 462.12-13.45L462.12-13.45Q462.12-20.09 464.99-23.79 467.86-27.49 472.94-27.49L472.94-27.49Q478.26-27.49 481.04-23.56L481.04-23.56 481.34-23.56Q480.92-26.46 480.92-28.15L480.92-28.15 480.92-37.99 486.68-37.99 486.68 0 482.19 0 481.19-3.54 480.92-3.54Q478.16 0.49 472.84 0.49ZM474.38-4.15L474.38-4.15Q477.92-4.15 479.53-6.14 481.14-8.13 481.19-12.6L481.19-12.6 481.19-13.4Q481.19-18.51 479.53-20.65 477.87-22.8 474.33-22.8L474.33-22.8Q471.3-22.8 469.67-20.35 468.03-17.9 468.03-13.35L468.03-13.35Q468.03-8.86 469.62-6.51 471.21-4.15 474.38-4.15ZM508.34-27L517.69-27 517.69-23.85 513.07-23Q513.71-22.14 514.12-20.9 514.54-19.65 514.54-18.26L514.54-18.26Q514.54-14.09 511.66-11.69 508.78-9.3 503.72-9.3L503.72-9.3Q502.43-9.3 501.38-9.5L501.38-9.5Q499.52-8.35 499.52-6.81L499.52-6.81Q499.52-5.88 500.39-5.42 501.26-4.96 503.58-4.96L503.58-4.96 508.29-4.96Q512.76-4.96 515.07-3.05 517.39-1.15 517.39 2.44L517.39 2.44Q517.39 7.03 513.61 9.52 509.83 12.01 502.67 12.01L502.67 12.01Q497.15 12.01 494.25 10.06 491.34 8.11 491.34 4.49L491.34 4.49Q491.34 2 492.92 0.31 494.49-1.39 497.33-2.05L497.33-2.05Q496.18-2.54 495.43-3.63 494.69-4.71 494.69-5.91L494.69-5.91Q494.69-7.42 495.54-8.47 496.4-9.52 498.08-10.55L498.08-10.55Q495.98-11.45 494.68-13.49 493.37-15.53 493.37-18.26L493.37-18.26Q493.37-22.66 496.14-25.07 498.91-27.49 504.04-27.49L504.04-27.49Q505.19-27.49 506.44-27.33 507.7-27.17 508.34-27L508.34-27ZM496.47 4.2L496.47 4.2Q496.47 6.05 498.14 7.06 499.82 8.06 502.84 8.06L502.84 8.06Q507.53 8.06 509.83 6.71 512.12 5.37 512.12 3.15L512.12 3.15Q512.12 1.39 510.86 0.65 509.61-0.1 506.19-0.1L506.19-0.1 501.84-0.1Q499.38-0.1 497.92 1.06 496.47 2.22 496.47 4.2ZM498.94-18.26L498.94-18.26Q498.94-15.72 500.24-14.36 501.55-12.99 503.99-12.99L503.99-12.99Q508.97-12.99 508.97-18.31L508.97-18.31Q508.97-20.95 507.74-22.38 506.51-23.8 503.99-23.8L503.99-23.8Q501.5-23.8 500.22-22.39 498.94-20.97 498.94-18.26ZM534.48 0.49L534.48 0.49Q528.18 0.49 524.63-3.19 521.08-6.86 521.08-13.31L521.08-13.31Q521.08-19.92 524.37-23.71 527.67-27.49 533.43-27.49L533.43-27.49Q538.78-27.49 541.88-24.24 544.98-21 544.98-15.31L544.98-15.31 544.98-12.21 526.99-12.21Q527.11-8.28 529.11-6.16 531.11-4.05 534.75-4.05L534.75-4.05Q537.14-4.05 539.21-4.5 541.27-4.96 543.64-6.01L543.64-6.01 543.64-1.34Q541.54-0.34 539.39 0.07 537.24 0.49 534.48 0.49ZM533.43-23.14L533.43-23.14Q530.7-23.14 529.05-21.41 527.4-19.68 527.08-16.36L527.08-16.36 539.34-16.36Q539.29-19.7 537.73-21.42 536.17-23.14 533.43-23.14Z" fill="#3d9970" data-fill-palette-color="primary"></path><path d="M590.83-35.69L590.83 0 584.97 0 584.97-16.09 568.51-16.09 568.51 0 562.68 0 562.68-35.69 568.51-35.69 568.51-21.09 584.97-21.09 584.97-35.69 590.83-35.69ZM623.17 0L618.66 0 617.85-3.54 617.56-3.54Q616.36-1.66 614.15-0.59 611.94 0.49 609.11 0.49L609.11 0.49Q604.2 0.49 601.79-1.95 599.37-4.39 599.37-9.35L599.37-9.35 599.37-27 605.16-27 605.16-10.35Q605.16-7.25 606.43-5.7 607.69-4.15 610.4-4.15L610.4-4.15Q614.02-4.15 615.71-6.31 617.41-8.47 617.41-13.55L617.41-13.55 617.41-27 623.17-27 623.17 0ZM645.14-27.49L645.14-27.49Q650.2-27.49 653.02-23.83 655.84-20.17 655.84-13.55L655.84-13.55Q655.84-6.91 652.98-3.21 650.12 0.49 645.05 0.49L645.05 0.49Q639.92 0.49 637.09-3.2L637.09-3.2 636.7-3.2 635.65 0 631.35 0 631.35-37.99 637.09-37.99 637.09-28.96Q637.09-27.95 636.99-25.98 636.89-24 636.84-23.46L636.84-23.46 637.09-23.46Q639.82-27.49 645.14-27.49ZM643.65-22.8L643.65-22.8Q640.19-22.8 638.66-20.76 637.14-18.73 637.09-13.94L637.09-13.94 637.09-13.55Q637.09-8.62 638.65-6.41 640.21-4.2 643.75-4.2L643.75-4.2Q646.8-4.2 648.38-6.62 649.95-9.03 649.95-13.6L649.95-13.6Q649.95-22.8 643.65-22.8Z" fill="#093a3e" data-fill-palette-color="secondary"></path></g></svg></g></svg></g></svg></g></svg></g><g transform="matrix(1,0,0,1,0,0.20824792604884124)"><svg viewBox="0 0 78.83393718495793 83.29917041953625" height="83.29917041953625" width="78.83393718495793"><g><svg xmlns="http://www.w3.org/2000/svg" xmlns:xlink="http://www.w3.org/1999/xlink" version="1.1" x="0" y="0" viewBox="14.751998901367188 11.691999435424805 73.18000793457031 77.32499694824219" enable-background="new 0 0 100 100" xml:space="preserve" height="83.29917041953625" width="78.83393718495793" class="icon-icon-0" data-fill-palette-color="accent" id="icon-0"><path fill="#3d9970" d="M61.64 58.881c-7.924 9.351-16.084 9.953-16.044 10.52-2.867-21.792 10.982-37.815 10.982-37.815-2.932 2.908-5.308 5.971-7.229 9.104 0.133-0.221 0.224-0.371 0.224-0.371-3.369-2.856-5.174-11.592-5.174-11.592 0.793 10.315 3.651 14.212 3.651 14.212 0.256-0.487 0.697-1.241 1.041-1.817-2.927 4.887-4.749 9.935-5.813 14.842 0.046-0.237 0.075-0.386 0.075-0.386-1.904-5.694-8.476-10.188-8.476-10.188 5.237 5.395 7.674 14.616 7.674 14.616 0.026-0.203 0.082-0.541 0.15-0.936-2.529 16.138 2.583 29.947 2.583 29.947h7.432c-3.517-5.776-5.59-11.39-6.639-16.701 0.099 0.438 0.17 0.688 0.17 0.688C54.498 69.195 61.64 58.881 61.64 58.881z" data-fill-palette-color="accent"></path><path fill="#3d9970" d="M51.316 59.684c0 0-3.159-22.583 36.616-22.119 0 0-4.555 34.476-28.624 31.875 0 0 8.829-7.395 8.829-15.872C68.138 53.568 61.35 50.951 51.316 59.684z" data-fill-palette-color="accent"></path><path fill="#3d9970" d="M34.543 51.682c0 0-18.061 3.744-19.791-28.382 0 0 28.069 1.85 27.243 21.414 0 0-6.435-6.733-13.277-6.285C28.719 38.429 26.965 44.047 34.543 51.682z" data-fill-palette-color="accent"></path><path fill="#3d9970" d="M51.258 31.022c0 0-3.108-13.878 21.645-15.606 0 0-1.084 21.666-16.18 21.27 0 0 5.112-5.046 4.684-10.315C61.406 26.37 57.053 25.086 51.258 31.022z" data-fill-palette-color="accent"></path><path fill="#3d9970" d="M41.5 31.083c0 0-9.766-3.453-1.254-19.391 0 0 12.947 9.051 6.862 18.211 0 0-1.134-5.105-4.552-6.881C42.556 23.022 40.08 25.212 41.5 31.083z" data-fill-palette-color="accent"></path></svg></g></svg></g></svg></g><defs></defs></svg><rect width="395.52" height="65.65989698580408" fill="none" stroke="none" visibility="hidden"></rect></g></svg></g></svg>